<svg width="48" height="48" viewBox="0 0 51 51" fill="none" xmlns="http://www.w3.org/2000/svg">
<rect x="1.41421" y="25.4559" width="34" height="34" transform="rotate(-45 1.41421 25.4559)" stroke="#EF233C" stroke-width="2"/>
<rect y="25.4558" width="36" height="36" transform="rotate(-45 0 25.4558)" fill="#EF233C"/>
<path d="M30.6882 23.4922H27.8885C27.8374 23.13 27.733 22.8082 27.5753 22.527C27.4176 22.2415 27.2152 21.9986 26.968 21.7983C26.7209 21.598 26.4354 21.4446 26.1115 21.3381C25.7919 21.2315 25.4446 21.1783 25.0696 21.1783C24.392 21.1783 23.8018 21.3466 23.299 21.6832C22.7962 22.0156 22.4063 22.5014 22.1293 23.1406C21.8523 23.7756 21.7138 24.5469 21.7138 25.4545C21.7138 26.3878 21.8523 27.1719 22.1293 27.8068C22.4105 28.4418 22.8026 28.9212 23.3054 29.245C23.8082 29.5689 24.3899 29.7308 25.0504 29.7308C25.4212 29.7308 25.7642 29.6818 26.0795 29.5838C26.3991 29.4858 26.6825 29.343 26.9297 29.1555C27.1768 28.9638 27.3814 28.7315 27.5433 28.4588C27.7095 28.1861 27.8246 27.875 27.8885 27.5256L30.6882 27.5384C30.6158 28.1392 30.4347 28.7188 30.1449 29.277C29.8594 29.831 29.4737 30.3274 28.9879 30.7663C28.5064 31.201 27.9311 31.5462 27.2621 31.8018C26.5973 32.0533 25.8452 32.179 25.0057 32.179C23.8381 32.179 22.794 31.9148 21.8736 31.3864C20.9574 30.858 20.233 30.093 19.7003 29.0916C19.1719 28.0902 18.9077 26.8778 18.9077 25.4545C18.9077 24.027 19.1761 22.8125 19.7131 21.8111C20.25 20.8097 20.9787 20.0469 21.8991 19.5227C22.8196 18.9943 23.8551 18.7301 25.0057 18.7301C25.7642 18.7301 26.4673 18.8366 27.1151 19.0497C27.767 19.2628 28.3445 19.5739 28.8473 19.983C29.3501 20.3878 29.7592 20.8842 30.0746 21.4723C30.3942 22.0604 30.5987 22.7337 30.6882 23.4922Z" fill="white"/>
</svg>
